<svg width="103" height="26" viewBox="0 0 103 26" fill="none" xmlns="http://www.w3.org/2000/svg">
<path d="M0 7.16732V3.71419H16.2693V7.16732H10.2046V23.5237H6.06473V7.16732H0Z" fill="white"/>
<path d="M36.2481 13.619C36.2481 15.7792 35.8387 17.617 35.0197 19.1323C34.2072 20.6477 33.0981 21.8052 31.6923 22.6048C30.293 23.398 28.7196 23.7945 26.9721 23.7945C25.2117 23.7945 23.6318 23.3947 22.2325 22.5951C20.8332 21.7955 19.7273 20.6381 18.9148 19.1227C18.1023 17.6073 17.6961 15.7727 17.6961 13.619C17.6961 11.4587 18.1023 9.62094 18.9148 8.10556C19.7273 6.59018 20.8332 5.43592 22.2325 4.64276C23.6318 3.84316 25.2117 3.44336 26.9721 3.44336C28.7196 3.44336 30.293 3.84316 31.6923 4.64276C33.0981 5.43592 34.2072 6.59018 35.0197 8.10556C35.8387 9.62094 36.2481 11.4587 36.2481 13.619ZM32.0019 13.619C32.0019 12.2196 31.7923 11.0396 31.3731 10.0788C30.9604 9.11796 30.3769 8.38929 29.6224 7.89277C28.8679 7.39624 27.9845 7.14797 26.9721 7.14797C25.9597 7.14797 25.0763 7.39624 24.3218 7.89277C23.5673 8.38929 22.9805 9.11796 22.5614 10.0788C22.1487 11.0396 21.9423 12.2196 21.9423 13.619C21.9423 15.0183 22.1487 16.1983 22.5614 17.1591C22.9805 18.1199 23.5673 18.8486 24.3218 19.3451C25.0763 19.8417 25.9597 20.0899 26.9721 20.0899C27.9845 20.0899 28.8679 19.8417 29.6224 19.3451C30.3769 18.8486 30.9604 18.1199 31.3731 17.1591C31.7923 16.1983 32.0019 15.0183 32.0019 13.619Z" fill="white"/>
<path d="M46.373 23.5237H39.3506V3.71419H46.431C48.4235 3.71419 50.1388 4.11077 51.5768 4.90393C53.0148 5.69063 54.1207 6.82233 54.8945 8.29902C55.6748 9.7757 56.0649 11.5426 56.0649 13.5996C56.0649 15.6631 55.6748 17.4364 54.8945 18.9195C54.1207 20.4027 53.0084 21.5408 51.5575 22.334C50.113 23.1271 48.3849 23.5237 46.373 23.5237ZM43.5389 19.9352H46.1988C47.4369 19.9352 48.4784 19.7159 49.3231 19.2774C50.1743 18.8325 50.8127 18.1457 51.2383 17.2172C51.6703 16.2821 51.8863 15.0763 51.8863 13.5996C51.8863 12.1358 51.6703 10.9396 51.2383 10.0111C50.8127 9.0825 50.1775 8.39896 49.3328 7.96047C48.488 7.52198 47.4466 7.30274 46.2085 7.30274H43.5389V19.9352Z" fill="white"/>
<path d="M98.1674 9.41137C98.09 8.63111 97.7579 8.02496 97.1711 7.59291C96.5843 7.16087 95.7879 6.94485 94.782 6.94485C94.0984 6.94485 93.5213 7.04157 93.0506 7.23503C92.5798 7.42203 92.2187 7.68319 91.9672 8.01851C91.7222 8.35383 91.5997 8.73428 91.5997 9.15988C91.5868 9.51454 91.6609 9.82406 91.8221 10.0884C91.9898 10.3528 92.2187 10.5818 92.5089 10.7752C92.7991 10.9622 93.1344 11.1266 93.5149 11.2685C93.8953 11.4039 94.3016 11.52 94.7336 11.6167L96.5134 12.0423C97.3775 12.2358 98.1706 12.4937 98.8928 12.8161C99.6151 13.1385 100.241 13.5351 100.769 14.0059C101.298 14.4766 101.708 15.0312 101.998 15.6695C102.294 16.3079 102.446 17.0398 102.452 17.8652C102.446 19.0775 102.136 20.1286 101.524 21.0185C100.918 21.9019 100.041 22.5887 98.8928 23.0788C97.7515 23.5624 96.3747 23.8042 94.7626 23.8042C93.1634 23.8042 91.7706 23.5592 90.5841 23.0691C89.404 22.579 88.4819 21.8536 87.8177 20.8928C87.1599 19.9255 86.815 18.7293 86.7827 17.3042H90.8355C90.8807 17.9684 91.0709 18.523 91.4062 18.9679C91.748 19.4064 92.2026 19.7385 92.7701 19.9642C93.344 20.1834 93.992 20.2931 94.7143 20.2931C95.4236 20.2931 96.0394 20.1899 96.5617 19.9835C97.0905 19.7772 97.5 19.4902 97.7902 19.1227C98.0803 18.7551 98.2254 18.3327 98.2254 17.8556C98.2254 17.4106 98.0932 17.0366 97.8288 16.7335C97.5709 16.4305 97.1905 16.1725 96.6875 15.9597C96.1909 15.7469 95.5816 15.5535 94.8594 15.3794L92.7024 14.8377C91.0322 14.4315 89.7135 13.7963 88.7463 12.9322C87.779 12.0681 87.2986 10.9042 87.305 9.44038C87.2986 8.24098 87.6178 7.19311 88.2626 6.29678C88.9139 5.40045 89.807 4.7008 90.9419 4.19782C92.0769 3.69485 93.3665 3.44336 94.811 3.44336C96.2812 3.44336 97.5645 3.69485 98.6607 4.19782C99.7634 4.7008 100.621 5.40045 101.234 6.29678C101.846 7.19311 102.162 8.23131 102.182 9.41137H98.1674Z" fill="white"/>
<g clip-path="url(#clip0_34_44)">
<path d="M82.7474 10.641C83.0428 9.76572 83.1452 8.83832 83.0479 7.92085C82.9506 7.00337 82.6558 6.11699 82.1832 5.32104C81.4827 4.11712 80.4126 3.16393 79.1274 2.59901C77.8422 2.0341 76.4083 1.88667 75.0326 2.17801C74.4122 1.48804 73.6495 0.936807 72.7956 0.561211C71.9417 0.185615 71.0164 -0.00568022 70.0815 0.000128426C68.675 -0.00321952 67.3038 0.434224 66.1655 1.24939C65.0273 2.06456 64.1808 3.21533 63.7481 4.53579C62.8318 4.72086 61.9662 5.09691 61.2092 5.63878C60.4521 6.18065 59.8212 6.87584 59.3585 7.6778C58.6523 8.87838 58.3509 10.2692 58.4977 11.6498C58.6444 13.0303 59.2318 14.3292 60.1751 15.359C59.8797 16.2343 59.7773 17.1617 59.8746 18.0792C59.9719 18.9966 60.2667 19.883 60.7392 20.679C61.4399 21.8828 62.51 22.836 63.7952 23.4009C65.0804 23.9657 66.5142 24.1132 67.8899 23.822C68.5104 24.512 69.2731 25.0632 70.1269 25.4388C70.9808 25.8144 71.9061 26.0057 72.841 25.9999C74.2481 26.0035 75.6201 25.5659 76.7588 24.7502C77.8976 23.9345 78.7442 22.7829 79.1766 21.4616C80.0928 21.2766 80.9584 20.9005 81.7155 20.3587C82.4725 19.8168 83.1035 19.1216 83.5661 18.3196C84.2714 17.1191 84.5721 15.7286 84.425 14.3486C84.2778 12.9686 83.6904 11.6704 82.7474 10.641ZM72.8431 24.3002C71.688 24.3018 70.5691 23.9027 69.6821 23.1726C69.722 23.151 69.7922 23.1131 69.8379 23.0855L75.0846 20.0951C75.2163 20.0212 75.3256 19.914 75.4014 19.7846C75.4772 19.6551 75.5167 19.5081 75.5158 19.3586V12.0602L77.7335 13.3237C77.7451 13.3294 77.7551 13.3379 77.7626 13.3483C77.7702 13.3588 77.7749 13.3709 77.7766 13.3836V19.4278C77.7749 20.7187 77.2547 21.9564 76.33 22.8697C75.4053 23.7829 74.1514 24.2973 72.8431 24.3002ZM62.2333 19.8292C61.6547 18.8427 61.4461 17.6869 61.6442 16.5641C61.6831 16.5872 61.7512 16.6282 61.8 16.6559L67.0467 19.6461C67.1774 19.7216 67.3262 19.7613 67.4776 19.7613C67.6291 19.7613 67.7778 19.7216 67.9086 19.6461L74.3143 15.9967V18.5236C74.315 18.5365 74.3125 18.5494 74.3069 18.5611C74.3014 18.5728 74.293 18.583 74.2826 18.5908L68.9787 21.6123C67.8442 22.257 66.4969 22.4313 65.2323 22.097C63.9677 21.7627 62.8891 20.9471 62.2333 19.8292ZM60.853 8.52761C61.4291 7.53989 62.339 6.78362 63.4234 6.39125C63.4234 6.43584 63.4208 6.51482 63.4208 6.56961V12.5502C63.4199 12.6996 63.4593 12.8465 63.5349 12.9759C63.6106 13.1052 63.7199 13.2124 63.8514 13.2863L70.2571 16.9352L68.0395 18.1986C68.0285 18.2057 68.016 18.2101 68.0029 18.2112C67.9899 18.2124 67.9767 18.2104 67.9646 18.2053L62.6603 15.1812C61.5278 14.5341 60.7016 13.4703 60.3628 12.223C60.024 10.9757 60.2003 9.64682 60.853 8.52761ZM79.0732 12.7111L72.6675 9.06171L74.8851 7.79876C74.8961 7.79165 74.9086 7.78732 74.9217 7.78616C74.9347 7.785 74.9479 7.78705 74.9599 7.79213L80.2643 10.8137C81.077 11.2768 81.7391 11.9588 82.1731 12.7798C82.6071 13.6008 82.7951 14.5269 82.715 15.4495C82.635 16.3721 82.2902 17.2531 81.721 17.9893C81.1518 18.7256 80.3818 19.2866 79.5012 19.6067V13.4472C79.5024 13.2981 79.4634 13.1513 79.3882 13.022C79.313 12.8926 79.2043 12.7854 79.0732 12.7111ZM81.2804 9.43332C81.2415 9.40972 81.1734 9.36923 81.1246 9.34159L75.8778 6.35128C75.7471 6.27598 75.5984 6.2363 75.4469 6.2363C75.2955 6.2363 75.1468 6.27598 75.016 6.35128L68.6104 10.0008V7.47383C68.6096 7.46093 68.6121 7.44805 68.6177 7.43634C68.6232 7.42462 68.6316 7.41444 68.6421 7.40668L73.9459 4.38766C74.7585 3.92538 75.6876 3.70096 76.6247 3.74065C77.5618 3.78035 78.4681 4.08252 79.2375 4.61182C80.0069 5.14112 80.6076 5.87566 80.9694 6.72951C81.3312 7.58335 81.4391 8.52119 81.2804 9.43332ZM67.4047 13.9372L65.1865 12.6738C65.1748 12.6681 65.1648 12.6596 65.1573 12.6491C65.1498 12.6386 65.145 12.6265 65.1434 12.6138V6.56961C65.144 5.64389 65.4119 4.73749 65.9156 3.95651C66.4193 3.17553 67.1381 2.55228 67.9878 2.15972C68.8375 1.76716 69.7829 1.62152 70.7134 1.73986C71.6439 1.8582 72.521 2.23562 73.242 2.82793C73.2021 2.84946 73.1324 2.8874 73.0862 2.91508L67.8395 5.90536C67.7078 5.97919 67.5985 6.08629 67.5227 6.21565C67.4469 6.34501 67.4074 6.49196 67.4083 6.64137L67.4047 13.9372ZM68.6093 11.3744L71.4623 9.74857L74.3153 11.3734V14.624L71.4623 16.2489L68.6093 14.624L68.6093 11.3744Z" fill="#77FFE7"/>
</g>
<defs>
<clipPath id="clip0_34_44">
<rect width="26" height="26" fill="white" transform="translate(58.4614)"/>
</clipPath>
</defs>
</svg>
